<?xml version="1.0" encoding="utf-8"?>
<!-- Generator: Adobe Illustrator 15.1.0, SVG Export Plug-In . SVG Version: 6.00 Build 0)  -->
<!DOCTYPE svg PUBLIC "-//W3C//DTD SVG 1.1//EN" "http://www.w3.org/Graphics/SVG/1.1/DTD/svg11.dtd">
<svg version="1.1" id="Page_1" xmlns="http://www.w3.org/2000/svg" xmlns:xlink="http://www.w3.org/1999/xlink" x="0px" y="0px"
	 width="100px" height="100px" viewBox="0 0 100 100" enable-background="new 0 0 100 100" xml:space="preserve">
<g id="Layer_1_1_">
	<path fill-rule="evenodd" clip-rule="evenodd" fill="#003466" d="M0,0h0.391c5.482,2.71,10.76,5.863,16.067,8.893
		c9.582,5.515,19.162,10.893,29.528,14.856l4.433,1.448l4.534,1.206l4.535,0.861l4.638,0.518l4.637,0.104l4.706-0.311l4.773-0.793
		l4.842-1.31l4.876-1.861l4.91-2.413l4.944-3.067l2.183-1.621v-2.447l-3.206,2.068l-5.012,2.551l-4.943,1.931l-4.876,1.345
		l-4.876,0.861l-4.773,0.311L67.5,22.99l-4.706-0.551l-4.637-0.896c-6.342-1.792-12.206-3.964-18.173-6.791
		C31.138,10.33,22.677,5.159,14.259,0H100v100H90l9.938-28.869v-7.315h-9.678l-6.611,24.592l-6.474-24.592h-12.03L77.304,100H66.441
		v-0.26c-0.716,0-1.192-1.408-1.192-3.71v-2.748c0-3.398-0.478-5.906-1.466-6.869c-0.681-0.857-2.454-2.094-4.771-2.987
		c1.942-0.48,3.51-1.614,4.396-3.056c1.091-1.271,1.841-3.642,1.841-5.908c0-3.263-1.193-5.94-3.17-7.899
		c-2.043-1.718-6.44-2.747-12.574-2.747h-17.55V100h-2.181v-7.781H11.508V86.14h14.55v-8.483h-14.55v-5.358h17.345v-8.482H0V0L0,0z
		 M54.38,100H43.813V87.822h1.635c2.692,0,4.942,0.275,6.101,0.585c0.886,0.377,1.874,1.477,2.114,2.402
		c0,0.859,0.408,2.473,0.408,4.809C54.071,97.433,54.213,98.98,54.38,100L54.38,100z M8.578,60.725l4.941-7.694h10.564l-8.656,7.694
		H8.578L8.578,60.725z M43.813,72.298v7.419h5.078c3.544,0,5.418-1.03,5.418-3.159v-0.274c0-1.168-0.511-2.268-1.397-2.68
		c-0.886-0.756-2.044-1.306-3.408-1.306H43.813L43.813,72.298z"/>
	<path fill-rule="evenodd" clip-rule="evenodd" fill="#9FD9F6" d="M99.964,36.191v-2.784l-3.022,1.562l-4.957,1.901l-4.889,1.324
		l-4.821,0.815l-4.788,0.339L72.7,39.213l-4.686-0.543l-4.618-0.883c-4.651-1.29-9.201-2.887-13.683-4.651
		c-4.448-2.038-8.862-4.278-13.174-6.588C24.453,19.622,12.671,11.575,0.108,5.531H0.006v8.353
		c7.572,3.09,14.702,7.334,21.866,11.375c9.541,5.432,19.082,10.729,29.403,14.633l4.414,1.461l4.516,1.188l4.516,0.85l4.618,0.475
		L73.956,44l4.72-0.306l4.753-0.78l4.821-1.291l4.855-1.833l4.889-2.377L99.964,36.191L99.964,36.191z"/>
	<path fill-rule="evenodd" clip-rule="evenodd" fill="#AEC90C" d="M99.964,49.06v-3.226l-3.429,1.731l-4.618,1.8l-4.652,1.256
		l-4.651,0.849l-4.617,0.374l-4.618-0.035c-4.618-0.44-9.236-1.188-13.819-2.172c-9.337-2.683-18.063-6.282-26.857-10.458
		c-10.797-5.16-21.322-10.933-32.697-14.565v7.911c15.177,4.651,29.166,12.528,43.969,18.198l4.346,1.562
		c5.874,1.867,11.646,3.328,17.758,4.177l4.482,0.339l4.55,0.034l4.55-0.407l4.549-0.781l4.549-1.256l4.584-1.766l4.549-2.274
		L99.964,49.06L99.964,49.06z"/>
</g>
</svg>
